<?xml version="1.0" standalone="no"?><!DOCTYPE svg PUBLIC "-//W3C//DTD SVG 1.1//EN" "http://www.w3.org/Graphics/SVG/1.1/DTD/svg11.dtd"><svg t="1683624003418" class="icon" viewBox="0 0 1024 1024" version="1.1" xmlns="http://www.w3.org/2000/svg" p-id="1309" xmlns:xlink="http://www.w3.org/1999/xlink" width="200" height="200"><path d="M424.9 137.7l39.3 67h15l-47.8-81.5H311.8l-45.2 81.5h14.8l37.1-67z" fill="#FBC85A" p-id="1310"></path><path d="M281.4 204.7l-3 5.4h189l-3.2-5.4z" fill="#FFFFFF" p-id="1311"></path><path d="M983 883.4H52.7c-5.5 0-10-4.5-10-10v-3.1c0-5.5 4.5-10 10-10H983c5.5 0 10 4.5 10 10v3.1c0 5.5-4.5 10-10 10z" fill="#227C96" p-id="1312"></path><path d="M115.1 181.7h524.5v678.6H115.1z" fill="#4C8ABC" p-id="1313"></path><path d="M639.6 325.2h217.1v535.1H639.6z" fill="#FBC85A" p-id="1314"></path><path d="M191.3 282.7h384.5v54.9H191.3zM191.3 431.5h384.5v54.9H191.3z" fill="#FFFFFF" p-id="1315"></path><path d="M191.3 580.4h384.5v54.9H191.3z" fill="#FFFFFF" p-id="1316"></path><path d="M639.6 443.9h147.1V459H639.6zM639.6 503.4h147.1v15.1H639.6zM639.6 562.9h147.1V578H639.6z" fill="#FFFFFF" p-id="1317"></path><path d="M470.9 745.6a21.9 107.1 0 1 0 43.8 0 21.9 107.1 0 1 0-43.8 0Z" fill="#ED1C24" p-id="1318"></path><path d="M429.900473 832.338719a21.9 107.1 35.966 1 0 125.800745-173.366122 21.9 107.1 35.966 1 0-125.800745 173.366122Z" fill="#ED1C24" p-id="1319"></path><path d="M390.960319 778.849683a21.9 107.1 71.929 1 0 203.634126-66.443831 21.9 107.1 71.929 1 0-203.634126 66.443831Z" fill="#ED1C24" p-id="1320"></path><path d="M486.03846 766.542678a107.1 21.9 17.891 1 0 13.455673-41.681949 107.1 21.9 17.891 1 0-13.455673 41.681949Z" fill="#ED1C24" p-id="1321"></path><path d="M475.079491 758.568361a107.1 21.9 53.856 1 0 35.370128-25.83397 107.1 21.9 53.856 1 0-35.370128 25.83397Z" fill="#ED1C24" p-id="1322"></path><path d="M639.6 622.4h147.1v15.1H639.6z" fill="#FFFFFF" p-id="1323"></path><path d="M524.9 775.9l-76-25.9 5.1-14.9c3.7-11 15.6-16.8 26.6-13.1l36.4 12.4c11 3.7 16.8 15.6 13.1 26.6l-5.2 14.9z" fill="#FFFFFF" p-id="1324"></path><path d="M493.822 696.722l28.017 9.552-9.552 28.016-28.016-9.552z" fill="#FFFFFF" p-id="1325"></path><path d="M509.1 697.9m-5.6 0a5.6 5.6 0 1 0 11.2 0 5.6 5.6 0 1 0-11.2 0Z" fill="#FFFFFF" p-id="1326"></path></svg>