<?xml version="1.0" standalone="no"?><!DOCTYPE svg PUBLIC "-//W3C//DTD SVG 1.1//EN" "http://www.w3.org/Graphics/SVG/1.1/DTD/svg11.dtd"><svg t="1683623998285" class="icon" viewBox="0 0 1024 1024" version="1.1" xmlns="http://www.w3.org/2000/svg" p-id="1148" xmlns:xlink="http://www.w3.org/1999/xlink" width="200" height="200"><path d="M673.1 92.6h-500v850h692.1V309.9z" fill="#4C8ABC" p-id="1149"></path><path d="M348.7 233.8m-64.1 0a64.1 64.1 0 1 0 128.2 0 64.1 64.1 0 1 0-128.2 0Z" fill="#FFFFFF" p-id="1150"></path><path d="M231.5 381.7c0-64.7 52.5-117.2 117.2-117.2S466 316.9 466 381.7M655.6 823.7c-17.5 0-40.4-5.6-60.1-29.2-28.8-34.5-24.1-86 10.4-114.8 34.5-28.8 86-24.1 114.8 10.4s24.1 86-10.4 114.8c-9.2 7.6-27.5 17.1-49 18.6-1.9 0.1-3.8 0.2-5.7 0.2z m2.4-147.8c-15 0-30.1 5-42.5 15.4-28.2 23.5-32 65.5-8.5 93.6 31.8 38.2 77.6 21.8 93.6 8.5 28.2-23.5 32-65.5 8.5-93.6-13.1-15.8-32-23.9-51.1-23.9zM801.5 904.5l-1.9 1.6c-5.5 4.6-13.7 3.9-18.3-1.7L716 826c-4.6-5.5-3.9-13.7 1.7-18.3l1.9-1.6c5.5-4.6 13.7-3.9 18.3 1.7l65.3 78.4c4.6 5.5 3.8 13.7-1.7 18.3zM450.3 672.3H253.6c-9 0-16.3-7.3-16.3-16.3v-3.1c0-9 7.3-16.3 16.3-16.3h196.7c9 0 16.3 7.3 16.3 16.3v3.1c0 9-7.3 16.3-16.3 16.3zM450.3 727.3H253.6c-9 0-16.3-7.3-16.3-16.3v-3.1c0-9 7.3-16.3 16.3-16.3h196.7c9 0 16.3 7.3 16.3 16.3v3.1c0 9-7.3 16.3-16.3 16.3zM450.3 782.3H253.6c-9 0-16.3-7.3-16.3-16.3v-3.1c0-9 7.3-16.3 16.3-16.3h196.7c9 0 16.3 7.3 16.3 16.3v3.1c0 9-7.3 16.3-16.3 16.3z" fill="#FFFFFF" p-id="1151"></path><path d="M673.1 92.6l-2.3 212.9 194.4 4.4z" fill="#94B9D7" p-id="1152"></path></svg>