<?xml version="1.0" standalone="no"?><!DOCTYPE svg PUBLIC "-//W3C//DTD SVG 1.1//EN" "http://www.w3.org/Graphics/SVG/1.1/DTD/svg11.dtd"><svg t="1683792420228" class="icon" viewBox="0 0 1066 1024" version="1.1" xmlns="http://www.w3.org/2000/svg" p-id="6647" xmlns:xlink="http://www.w3.org/1999/xlink" width="208.203125" height="200"><path d="M758.997333 0a161.28 161.28 0 0 1 161.28 161.28l-0.021333 228.032-293.866667 275.712a101.973333 101.973333 0 0 0-1.322666 143.210667 99.605333 99.605333 0 0 0 141.824 1.322666l153.365333-143.893333v197.056a161.28 161.28 0 0 1-161.28 161.28H161.28A161.28 161.28 0 0 1 0 862.72V161.28A161.28 161.28 0 0 1 161.28 0h597.717333z m237.44 399.125333a41.002667 41.002667 0 0 1 58.410667 0.554667c15.978667 16.426667 15.722667 42.837333-0.554667 58.965333L725.546667 767.04a41.002667 41.002667 0 0 1-58.389334-0.533333 41.984 41.984 0 0 1 0.554667-58.965334zM544.853333 514.794667H175.872a41.493333 41.493333 0 0 0-41.301333 41.685333c0 23.04 18.496 41.706667 41.301333 41.706667h368.96a41.493333 41.493333 0 0 0 41.301333-41.706667c0-23.04-18.496-41.685333-41.301333-41.685333z m191.68-271.210667H175.872a41.493333 41.493333 0 0 0-41.301333 41.706667c0 23.04 18.496 41.706667 41.301333 41.706666h560.64a41.493333 41.493333 0 0 0 41.301333-41.706666c0-23.04-18.496-41.706667-41.301333-41.706667z" fill="#4285F4" p-id="6648"></path></svg>